
<svg xmlns="http://www.w3.org/2000/svg"
     class="svg-snoweb svg-theme-dark"
     x="0"
     y="0"
     width="100%"
     height="100%"
     viewBox="0 0 100 100"
     preserveAspectRatio="xMidYMid meet"
>
<defs>
    <style>
        
            
            
            
        

        .svg-fill-primary {
            fill: #FFF;
        }

        .svg-fill-secondary {
            fill: #65CDAE;
        }

        .svg-fill-tertiary {
            fill: #37A987;
        }

        .svg-stroke-primary {
            stroke: #FFF;
        }

        .svg-stroke-secondary {
            stroke: #65CDAE;
        }

        .svg-stroke-tertiary {
            stroke: #37A987;
        }
    </style>
</defs>
    <path d="M78.5,86.6V21.5a8.1,8.1,0,0,0-8.1-8.1H29.6a8.1,8.1,0,0,0-8.1,8.1V86.6m57,0h8.1m-8.1,0H58.1m-36.6,0H13.4m8.1,0H41.9m-4.1-57h4.1M37.8,45.9h4.1M58.1,29.6h4.1M58.1,45.9h4.1M41.9,86.6V66.3a4,4,0,0,1,4-4.1h8.2a4,4,0,0,1,4,4.1V86.6m-16.2,0H58.1"
      fill="none"
      class="svg-stroke-primary"
      stroke-linecap="round"
      stroke-linejoin="round"
      stroke-width="8"/>

</svg>