<svg viewBox="0 0 1920 60" aria-hidden="true"><path fill="var(--color-bg)" d="M53.906,29.5H0v47H1088.07c7.838.337,16.46.586,26.073.695l143.585,2.738c108.343,2.043,218.453,3.984,331.019,5.332q84.424,1.011,170.777,1.516l61.749.219H1920V19.251l-7.26.028-21.868.155-44.011.39c-83.637,1.477-178.947,2.024-256.264,1.965-118.5-1.312-208.571,1.691-320.754-1.152C1157.586,17.8,1100.489,9.152,945.855,9.045c-47.6.271-60.274,3.334-107.945,3.606S732.046,8.276,714.015,8.877c-95.287.547-171.869,4.418-263.641,7.484-36.017,1.2-83.691,1.473-89.991,3-12.77,3.061,10.48,4.92-55.129,5.793,23.27,1.86,82.54,2.516,76.221,4.045-1.6.1-3.258.2-4.95.3H215.969c-9.95-1.135-60.178-3.2-107.12-3.719l-53.993,1.8L19.917,24.8l46.554,3.717C64.814,28.917,60.3,29.232,53.906,29.5Zm1618.247-1.2c-.341.076-.853.148-1.345.217-2.723.371-7.737.656-13.486.861-1.292.046-2.613.089-3.937.127h-17.364l.111,0-.194,0H1512.29c-4.824-.191-9.133-.426-12.726-.713C1558.873,29.441,1606.49,29.17,1672.153,28.3Z"></path></svg>