<svg viewBox="0 0 1920 60" aria-hidden="true"><polygon fill="var(--color-bg)" points="0 60 1920 60 1920 38.088 1919.861 38.146 1894.973 27.749 1870.364 35.233 1847.312 23.643 1823.857 24.446 1801.143 22.647 1778.462 20.738 1755.602 16.688 1732.438 17.902 1712.26 31.218 1691.051 36.7 1667.302 35.409 1647.36 50.53 1626.272 37.863 1605.23 35.851 1578.004 35.813 1553.283 31.227 1532.159 26.809 1510.259 28.285 1487.055 25.788 1461.236 35.114 1434.118 33.718 1407.318 34.937 1380.533 37.763 1356.528 42.856 1332.308 41.745 1308.433 33.231 1284.013 36.371 1259.249 36.572 1238.823 29.916 1220.674 14.934 1198.661 12.497 1178.485 24.023 1150.635 24.665 1126.019 31.516 1104.888 39.342 1085.026 28.173 1063.185 30.259 1039.737 22.928 1015.849 18.098 991.641 18.261 974.272 30.456 951.915 35.575 932.894 47.595 910.354 42.136 889.519 33.62 868.93 24.075 846.138 17.376 823.131 24.784 799.758 19.712 777.282 25.844 754.4 27.573 732.357 30.137 709.741 28.944 688.247 35.347 666.955 46.012 644.157 42.421 620.339 35.823 597.124 27.61 571.956 21.713 549.497 30.45 528.032 42.843 503.477 41.269 484.295 31.227 465.523 23.519 443.885 23.384 429.772 41.461 407.882 42.054 383.327 41.274 356.14 39.569 332.509 27.463 309.233 25.457 285.994 25.283 262.969 25.258 239.626 20.239 216.674 24.717 193.218 26.311 167.942 35.4 141.82 44.829 117.009 32.186 92.19 30.164 67.355 22.816 42.779 23.256 18.26 22.076 0 24.579 0 60"></polygon></svg>